<svg width="150" height="94" viewBox="0 0 150 94" fill="none" xmlns="http://www.w3.org/2000/svg">
<path d="M0.204576 3.3219L31.3315 3.34723C38.8402 3.34797 46.671 3.45783 54.1586 3.28467L54.1973 12.8562L11.6926 12.8843C11.8304 14.5798 11.6275 18.0943 11.6603 19.9942C11.7731 26.491 11.4338 33.341 11.7557 39.8093L48.7794 39.8262C48.8038 42.985 48.8031 46.1439 48.7769 49.3026C36.5155 49.5071 24.0551 49.2353 11.7514 49.3723C11.7513 50.0154 11.6973 50.7693 11.6657 51.4217C11.5044 60.2018 11.5281 70.3406 11.7175 79.113L54.7406 79.0922L54.7444 88.5826C49.2531 88.8034 42.2379 88.6017 36.648 88.601L0.203083 88.6187C-0.125558 85.6229 0.0762944 78.7675 0.0766679 75.5298L0.0818877 49.6462L0.0757333 19.2945C0.0751731 14.858 -0.16141 7.44363 0.204576 3.3219Z" fill="white"/>
<path d="M101.836 0.0788611C104.546 -0.449202 125.24 1.66828 122.44 6.62547C122.369 6.75212 122.287 6.87299 122.198 6.98659C120.997 8.49076 119.115 7.28839 117.806 6.82076C109.825 3.97191 101.379 3.52144 93.2379 5.5824C82.2484 8.38686 72.8329 15.4684 67.0807 25.2547C61.3949 34.8372 59.7668 46.2972 62.5583 57.0875C65.4537 68.0268 72.5572 77.3727 82.3155 83.0808C91.9341 88.7164 103.399 90.285 114.174 87.4398C125.119 84.4835 134.448 77.3065 140.122 67.4788C146.338 56.7575 146.952 45.6988 143.838 33.9215C143.301 32.4439 140.353 26.7114 141.638 25.5477C144.484 22.9728 146.034 27.4699 146.801 29.5036C148.332 33.5528 149.325 37.5613 149.763 41.8738C150.998 54.0922 147.375 66.3059 139.682 75.8693C123.338 95.8588 93.8209 98.9032 73.8648 82.4621C64.2527 74.5417 58.2182 63.0891 57.1146 50.673C56.0265 38.3117 59.9026 26.0258 67.8848 16.5343C74.2001 8.91306 83.664 3.25489 93.318 1.18833C96.1771 0.576147 98.9338 0.351939 101.836 0.0788611Z" fill="#3D45F4"/>
<path d="M100.274 6.79471C104.785 5.97605 112.897 7.54116 117.221 9.09721C127.22 12.7111 135.346 20.1968 139.771 29.8696C144.221 39.5424 144.628 50.5928 140.902 60.5677C137.202 70.394 129.787 78.3693 120.259 82.7708C115.745 84.8439 110.995 86.0374 106.04 86.3804C104.43 86.4919 102.172 86.9047 101.389 85.016C100.979 84.0269 101.706 82.7196 102.733 82.4577C104.491 82.0092 106.407 82.2092 108.208 81.9571C125.382 79.6265 139.009 64.5921 139.164 47.1697C139.199 43.3616 138.723 39.4083 137.494 35.8445C135.187 27.8031 129.005 20.402 121.937 16.0492C113.933 11.1519 104.31 9.64126 95.1919 11.8503C85.8668 14.103 77.8316 19.9929 72.8728 28.2083C67.5896 36.8823 66.5692 46.7878 69.0815 56.5548C69.7663 58.6654 70.8103 60.5314 71.4647 62.6645C72.1531 64.9092 69.4709 66.2835 68.4488 65.0738C65.7044 61.8252 64.3798 55.7374 63.8296 51.5692C62.445 41.0777 65.5095 30.0018 72.1291 21.7443C79.69 12.4444 88.587 8.14559 100.274 6.79471Z" fill="#FE346E"/>
<path d="M101.121 13.2718C108.342 12.5232 116.874 15.0118 122.842 19.0131C130.413 24.0863 135.629 31.9136 137.344 40.7747C139.083 49.7272 137.084 58.9921 131.801 66.4746C126.66 73.7415 118.84 78.7419 110.011 80.4097C100.861 82.1341 91.3885 80.1831 83.7061 74.9909C76.2403 69.8983 71.1237 62.1016 69.475 53.3042C68.7697 49.4014 68.5144 40.1649 70.7997 36.9383C75.5169 35.1814 73.9364 40.9285 73.569 43.2475C73.1602 45.7134 73.1263 48.2255 73.4673 50.7015C74.5901 58.9097 78.5387 65.7312 85.2509 70.7654C91.5656 75.5281 99.5476 77.616 107.43 76.5668C115.346 75.4869 122.806 71.0412 127.602 64.7725C132.365 58.5723 134.429 50.7594 133.341 43.0574C132.205 35.1894 127.934 28.0921 121.468 23.3388C115.657 18.9844 108.413 16.9025 101.136 17.4939C99.2047 17.6351 97.2964 18.0539 95.3824 18.3212C94.6627 18.4216 93.9638 18.4825 93.3855 17.9694C92.988 17.6158 92.8711 16.973 92.8146 16.4739C92.777 15.9759 92.9446 15.4025 93.312 15.0482C94.3067 14.0913 95.8157 13.899 97.1212 13.6967C98.4568 13.4895 99.7812 13.3691 101.121 13.2718Z" fill="#FC653E"/>
<path d="M101.153 18.6693C108.54 18.2666 114.913 19.9904 120.891 24.6334C124.418 27.5925 128.13 31.7368 129.14 36.3464C129.55 38.2216 127.634 39.3697 126.276 38.3256C125.003 37.1265 124.161 35.2494 123.246 33.7646C118.691 26.3766 110.18 22.1028 101.409 22.9003C95.044 23.4845 89.1792 26.6201 85.1458 31.5976C77.1425 41.3261 78.2369 56.2912 88.0084 64.3513C92.8886 69.4414 102.772 71.4093 109.333 69.4831C111.094 68.9661 114.773 66.7655 115.516 69.8275C116.279 72.9832 108.949 73.9931 106.82 74.2475C99.4663 75.1412 92.0567 73.0839 86.2049 68.5234C80.3848 63.9898 76.6176 57.306 75.7447 49.9652C73.9169 33.5434 84.9448 20.4599 101.153 18.6693Z" fill="#F0B82F"/>
<path d="M102.223 25.2399C105.357 24.9629 109.046 25.7154 111.932 26.9539C117.124 29.1619 121.22 33.3574 123.309 38.6068C125.387 43.8791 125.315 49.7576 123.109 54.9776C120.876 60.2382 116.613 64.3701 111.29 66.4336C109.04 67.3167 105.037 68.2768 102.558 67.7166C101.903 67.5684 100.737 65.7487 101.328 65.0156C102.807 63.1835 105.912 63.784 107.969 63.1635C112.302 61.9336 116.078 58.8801 118.303 55.0827C120.574 51.2216 121.217 46.612 120.087 42.2748C118.872 38.0488 116.459 34.5869 112.769 32.1595C108.962 29.6441 104.301 28.7805 99.8493 29.7654C95.3628 30.8001 91.4565 33.543 88.9543 37.4132C86.3238 41.5424 85.4287 47.3683 87.2171 51.934C87.5631 52.8181 87.8614 53.5074 88.1214 54.493C88.6705 56.5876 86.4922 58.0463 84.8137 56.702C83.3237 55.1817 82.4121 50.6767 82.2235 48.73C81.6542 42.8298 83.3603 37.1504 87.1933 32.6265C91.1179 27.9912 96.2433 25.7515 102.223 25.2399Z" fill="#1DA791"/>
</svg>
