<svg width="46" height="28" viewBox="0 0 46 28" fill="none" xmlns="http://www.w3.org/2000/svg">
<path d="M0.0615493 0.999484L9.42649 1.0071C11.6856 1.00733 14.0416 1.04038 16.2943 0.988281L16.3059 3.868L3.51788 3.87646C3.55934 4.38656 3.49827 5.44396 3.50816 6.01557C3.54209 7.97021 3.44001 10.0311 3.53686 11.9772L14.6759 11.9823C14.6833 12.9326 14.683 13.883 14.6752 14.8334C10.9861 14.8949 7.23729 14.8131 3.53557 14.8543C3.53552 15.0478 3.51928 15.2746 3.50978 15.4709C3.46125 18.1125 3.46838 21.1629 3.52535 23.8022L16.4694 23.7959L16.4705 26.6512C14.8184 26.7177 12.7078 26.657 11.026 26.6568L0.0611001 26.6621C-0.0377757 25.7608 0.0229542 23.6982 0.0230665 22.7241L0.024637 14.9367L0.0227853 5.80505C0.0226168 4.47025 -0.0485624 2.23956 0.0615493 0.999484Z" fill="black"/>
<path d="M30.6385 0.0237264C31.4539 -0.135148 37.6798 0.501922 36.8376 1.99336C36.8163 2.03146 36.7916 2.06783 36.7647 2.102C36.4033 2.55455 35.8373 2.19281 35.4433 2.05211C33.042 1.195 30.5012 1.05947 28.0517 1.67954C24.7454 2.52329 21.9126 4.65387 20.182 7.59819C18.4713 10.4812 17.9815 13.9291 18.8214 17.1755C19.6925 20.4667 21.8297 23.2786 24.7656 24.9959C27.6594 26.6915 31.1087 27.1634 34.3505 26.3074C37.6434 25.418 40.4504 23.2586 42.1574 20.3019C44.0274 17.0762 44.2124 13.7491 43.2754 10.2057C43.114 9.76115 42.2269 8.03648 42.6136 7.68635C43.4698 6.91168 43.9361 8.26466 44.167 8.87654C44.6276 10.0948 44.9263 11.3008 45.058 12.5983C45.4295 16.2743 44.3396 19.949 42.0251 22.8262C37.1077 28.8404 28.2271 29.7563 22.2231 24.8098C19.3312 22.4268 17.5156 18.9812 17.1836 15.2456C16.8562 11.5266 18.0224 7.83019 20.4239 4.97454C22.3239 2.68161 25.1713 0.979275 28.0758 0.357526C28.936 0.173341 29.7654 0.105885 30.6385 0.0237264Z" fill="#3D45F4"/>
<path d="M30.1686 2.04422C31.5256 1.79792 33.9664 2.2688 35.2673 2.73696C38.2756 3.82424 40.7203 6.07641 42.0517 8.98659C43.3904 11.8968 43.5131 15.2214 42.3921 18.2225C41.2789 21.1789 39.0479 23.5783 36.1812 24.9026C34.8231 25.5263 33.394 25.8854 31.9032 25.9886C31.419 26.0221 30.7394 26.1463 30.504 25.5781C30.3807 25.2805 30.5995 24.8872 30.9082 24.8084C31.4373 24.6735 32.0137 24.7336 32.5556 24.6578C37.7226 23.9566 41.8224 19.4333 41.8691 14.1916C41.8796 13.0458 41.7364 11.8564 41.3666 10.7842C40.6725 8.36486 38.8125 6.13814 36.686 4.82856C34.2779 3.35513 31.3829 2.90064 28.6395 3.56527C25.8339 4.243 23.4164 6.01507 21.9245 8.48676C20.335 11.0965 20.028 14.0767 20.7838 17.0152C20.9899 17.6502 21.304 18.2116 21.5009 18.8534C21.708 19.5287 20.901 19.9422 20.5935 19.5782C19.7678 18.6008 19.3693 16.7693 19.2037 15.5152C18.7872 12.3587 19.7092 9.02637 21.7007 6.54201C23.9755 3.74401 26.6523 2.45065 30.1686 2.04422Z" fill="#FE346E"/>
<path d="M30.4233 3.99278C32.5958 3.76756 35.1628 4.51628 36.9584 5.72015C39.2363 7.24646 40.8058 9.60141 41.3215 12.2674C41.8447 14.9609 41.2433 17.7483 39.654 19.9995C38.1073 22.1859 35.7545 23.6903 33.098 24.1921C30.3451 24.7109 27.4953 24.1239 25.184 22.5618C22.9378 21.0296 21.3984 18.6839 20.9023 16.0371C20.6901 14.8629 20.6133 12.0839 21.3009 11.1132C22.7201 10.5846 22.2446 12.3137 22.1341 13.0113C22.0111 13.7533 22.0009 14.5091 22.1035 15.254C22.4413 17.7235 23.6293 19.7759 25.6487 21.2905C27.5486 22.7234 29.9501 23.3515 32.3215 23.0359C34.7032 22.711 36.9476 21.3734 38.3907 19.4874C39.8235 17.622 40.4447 15.2714 40.1171 12.9542C39.7753 10.587 38.4904 8.45166 36.5452 7.02157C34.7967 5.71149 32.6174 5.08512 30.4279 5.26305C29.8469 5.30555 29.2728 5.43154 28.6969 5.51195C28.4804 5.54217 28.2701 5.56048 28.0961 5.40612C27.9765 5.29974 27.9414 5.10635 27.9244 4.95618C27.913 4.80634 27.9635 4.63384 28.074 4.52723C28.3733 4.23934 28.8273 4.18149 29.2201 4.12062C29.6219 4.05829 30.0204 4.02205 30.4233 3.99278Z" fill="#FC653E"/>
<path d="M30.4328 5.61711C32.6554 5.49595 34.5727 6.01456 36.3714 7.41147C37.4326 8.30174 38.5491 9.54862 38.8532 10.9355C38.9764 11.4997 38.4002 11.8451 37.9914 11.531C37.6084 11.1702 37.3553 10.6054 37.0798 10.1587C35.7095 7.93593 33.1487 6.65011 30.5101 6.89005C28.5949 7.06583 26.8304 8.0092 25.617 9.50676C23.209 12.4337 23.5383 16.9361 26.4782 19.3611C27.9465 20.8925 30.92 21.4846 32.8939 20.9051C33.4236 20.7495 34.5307 20.0875 34.7542 21.0087C34.9838 21.9581 32.7785 22.262 32.1379 22.3385C29.9254 22.6074 27.6962 21.9884 25.9356 20.6163C24.1845 19.2524 23.0511 17.2414 22.7885 15.0329C22.2386 10.0922 25.5565 6.15583 30.4328 5.61711Z" fill="#F0B82F"/>
<path d="M30.755 7.59366C31.6979 7.5103 32.8076 7.73672 33.6761 8.10933C35.238 8.77363 36.4705 10.0359 37.0989 11.6153C37.7239 13.2015 37.7025 14.9701 37.0388 16.5406C36.3669 18.1233 35.0843 19.3665 33.4828 19.9873C32.8059 20.253 31.6015 20.5419 30.8558 20.3733C30.6587 20.3287 30.3078 19.7812 30.4857 19.5607C30.9307 19.0095 31.8648 19.1901 32.4838 19.0035C33.7873 18.6334 34.9235 17.7147 35.5926 16.5722C36.2761 15.4106 36.4694 14.0237 36.1296 12.7188C35.7639 11.4474 35.038 10.4058 33.9278 9.67549C32.7823 8.91872 31.3801 8.65888 30.0407 8.95519C28.6909 9.26652 27.5157 10.0917 26.7628 11.2562C25.9714 12.4985 25.7021 14.2513 26.2402 15.6249C26.3443 15.8909 26.434 16.0983 26.5122 16.3948C26.6775 17.025 26.0221 17.4639 25.5171 17.0594C25.0688 16.602 24.7945 15.2466 24.7378 14.6609C24.5665 12.8858 25.0798 11.1771 26.233 9.816C27.4138 8.42143 28.9558 7.74758 30.755 7.59366Z" fill="#1DA791"/>
</svg>
