<svg width="22" height="22" viewBox="0 0 22 22" fill="none" xmlns="http://www.w3.org/2000/svg">
<path d="M20.9937 5.96134C20.7538 5.05804 20.047 4.34663 19.1495 4.10521C17.5228 3.6665 11 3.6665 11 3.6665C11 3.6665 4.47711 3.6665 2.85037 4.10521C1.95291 4.34667 1.24609 5.05804 1.00619 5.96134C0.570312 7.59862 0.570312 11.0147 0.570312 11.0147C0.570312 11.0147 0.570312 14.4307 1.00619 16.068C1.24609 16.9713 1.95291 17.653 2.85037 17.8945C4.47711 18.3332 11 18.3332 11 18.3332C11 18.3332 17.5228 18.3332 19.1495 17.8945C20.047 17.653 20.7538 16.9713 20.9937 16.068C21.4296 14.4307 21.4296 11.0147 21.4296 11.0147C21.4296 11.0147 21.4296 7.59862 20.9937 5.96134ZM8.8666 14.1162V7.91315L14.3184 11.0147L8.8666 14.1162Z" fill="black"/>
</svg>
